<svg width="221" height="117" viewBox="0 0 221 117" fill="none" xmlns="http://www.w3.org/2000/svg">
<path d="M50.1224 54.2104C48.9867 55.3456 48.4191 56.9246 48.5741 58.5178L48.5474 58.4913C48.7067 60.3661 48.026 62.2154 46.6868 63.5458C45.3476 64.8762 43.4862 65.5525 41.599 65.3942L41.6257 65.4207C39.3407 65.2094 37.1678 66.4442 36.1926 68.5079C35.2175 70.5717 35.6496 73.0213 37.273 74.6326C38.8965 76.2439 41.3626 76.671 43.439 75.7004C45.5155 74.7298 46.7564 72.5699 46.5417 70.3001L46.5698 70.3266C46.4105 68.4518 47.0912 66.6025 48.4304 65.2721C49.7696 63.9417 51.631 63.2654 53.5182 63.4236L53.4901 63.3972C56.0013 63.6215 58.338 62.1004 59.1334 59.7234C59.9288 57.3464 58.9739 54.7382 56.8273 53.4242C54.6807 52.1102 51.9063 52.4358 50.1269 54.2104H50.1224Z" fill="#5454D4"/>
<path d="M39.2025 61.953L39.1744 61.9265C40.779 62.0872 42.3715 61.5234 43.5124 60.3909C44.6532 59.2584 45.2219 57.6767 45.0614 56.0824L45.0895 56.1089C44.9302 54.2341 45.611 52.3848 46.9501 51.0544C48.2893 49.724 50.1508 49.0477 52.0379 49.206L52.0098 49.1795C54.2949 49.3927 56.4692 48.1593 57.4458 46.0958C58.4224 44.0324 57.9916 41.5821 56.3687 39.9697C54.7457 38.3574 52.2793 37.9294 50.2022 38.8996C48.1252 39.8698 46.8837 42.0299 47.0983 44.3001L47.0716 44.2721C47.2315 46.1471 46.5509 47.9967 45.2116 49.3272C43.8723 50.6578 42.0105 51.3339 40.1232 51.1751L40.1499 51.203C38.5452 51.0424 36.9527 51.6061 35.8118 52.7387C34.671 53.8712 34.1023 55.4528 34.2628 57.0471L34.2362 57.0207C34.395 58.8954 33.7141 60.7443 32.375 62.0746C31.0359 63.4049 29.1748 64.0813 27.2878 63.9236L27.3144 63.9501C25.0293 63.7369 22.855 64.9703 21.8784 67.0337C20.9018 69.0972 21.3326 71.5475 22.9556 73.1598C24.5785 74.7721 27.0449 75.2002 29.122 74.23C31.199 73.2597 32.4406 71.0997 32.226 68.8295L32.2541 68.856C32.0948 66.9811 32.7755 65.1319 34.1147 63.8014C35.4539 62.471 37.3153 61.7948 39.2025 61.953Z" fill="#FF7143"/>
<path d="M29.2817 59.0016C30.4177 57.8665 30.9848 56.2873 30.8286 54.6942L30.8567 54.7207C30.6973 52.8453 31.3784 50.9955 32.7183 49.665C34.0581 48.3344 35.9204 47.6586 37.8081 47.8178L37.78 47.7913C40.0643 48.0039 42.2375 46.7706 43.2135 44.7078C44.1896 42.645 43.7587 40.1957 42.1364 38.5839C40.514 36.9722 38.0486 36.5442 35.9722 37.5138C33.8958 38.4835 32.6544 40.6425 32.8684 42.9119L32.8418 42.8854C33.0011 44.7602 32.3203 46.6095 30.9812 47.9399C29.642 49.2703 27.7805 49.9466 25.8934 49.7883L25.92 49.8148C23.4089 49.5911 21.0727 51.1127 20.2777 53.4896C19.4828 55.8666 20.438 58.4746 22.5846 59.7882C24.7312 61.1019 27.5054 60.7762 29.2847 59.0016H29.2817Z" fill="#5454D4"/>
<path d="M75.1361 44.334H79.5325V65.5884H75.1361V44.334Z" fill="#19191B"/>
<path fill-rule="evenodd" clip-rule="evenodd" d="M86.7954 51.1596C83.8941 52.3636 82.0097 55.1867 82.0223 58.3104C82.0071 60.3586 82.8215 62.3269 84.2823 63.7724C85.7431 65.2178 87.7276 66.019 89.7893 65.9957C92.9336 65.9957 95.7676 64.1123 96.968 61.2252C98.1683 58.3381 97.4981 55.0168 95.2703 52.8124C93.0425 50.6081 89.6967 49.9555 86.7954 51.1596ZM89.7268 55.0536C91.5768 55.0196 93.1087 56.4729 93.1599 58.3103C93.2098 59.2212 92.874 60.1114 92.2338 60.7653C91.5935 61.4192 90.7072 61.7773 89.7893 61.753C87.939 61.7531 86.4343 60.2721 86.4172 58.434C86.4 56.596 87.8769 55.0875 89.7268 55.0536Z" fill="#19191B"/>
<path fill-rule="evenodd" clip-rule="evenodd" d="M115.078 64.8545V51.031L110.799 51.0281V52.5133C109.755 51.2443 108.167 50.5421 106.519 50.6207C102.5 50.7466 99.3069 54.0203 99.3069 58.0156C99.3069 62.0109 102.5 65.2845 106.519 65.4104C108.167 65.489 109.755 64.7868 110.799 63.5178V64.8486C110.872 65.7267 110.54 66.5905 109.896 67.1963C109.252 67.8021 108.366 68.0843 107.487 67.9633C106.098 68.1043 104.766 67.3733 104.146 66.1295L100.395 68.2839C101.863 70.6593 104.543 72.0214 107.341 71.8133C111.238 71.8133 115.078 69.7457 115.078 64.8545ZM108.711 54.6533C110.034 55.2458 110.861 56.5777 110.8 58.0177C110.828 58.9476 110.458 59.8456 109.783 60.4899C109.107 61.1342 108.189 61.4649 107.255 61.4001C105.804 61.4018 104.498 60.527 103.956 59.1903C103.413 57.8535 103.744 56.3234 104.79 55.325C105.836 54.3267 107.389 54.0608 108.711 54.6533Z" fill="#19191B"/>
<path fill-rule="evenodd" clip-rule="evenodd" d="M122.341 51.1596C119.44 52.3636 117.556 55.1867 117.568 58.3104C117.553 60.3586 118.367 62.3269 119.828 63.7724C121.289 65.2178 123.273 66.019 125.335 65.9957C128.479 65.9957 131.313 64.1123 132.514 61.2252C133.714 58.3381 133.044 55.0168 130.816 52.8124C128.588 50.6081 125.243 49.9555 122.341 51.1596ZM125.273 55.0536C127.123 55.0196 128.654 56.4729 128.706 58.3103C128.756 59.2212 128.42 60.1114 127.78 60.7653C127.139 61.4192 126.253 61.7773 125.335 61.753C123.485 61.7531 121.98 60.2721 121.963 58.434C121.946 56.596 123.423 55.0875 125.273 55.0536Z" fill="#19191B"/>
<path fill-rule="evenodd" clip-rule="evenodd" d="M136.781 44.7085C135.795 45.1141 135.152 46.0696 135.152 47.1296C135.167 48.5709 136.339 49.7358 137.79 49.7502C138.857 49.7502 139.819 49.1117 140.227 48.1324C140.635 47.1532 140.41 46.026 139.655 45.2765C138.901 44.5271 137.766 44.3029 136.781 44.7085ZM139.994 51.031H135.596L135.59 65.5898H139.994V51.031Z" fill="#19191B"/>
<path fill-rule="evenodd" clip-rule="evenodd" d="M157.084 63.6C158.398 62.1575 159.08 60.2537 158.977 58.3104C159.081 56.3667 158.399 54.4623 157.085 53.0193C155.77 51.5764 153.93 50.7141 151.973 50.6236C150.323 50.5342 148.72 51.1859 147.607 52.3986V51.031H143.211V71.4118H147.607V64.2192C148.72 65.4328 150.323 66.0851 151.973 65.9957C153.929 65.9048 155.769 65.0426 157.084 63.6ZM151.036 54.9329C152.951 54.901 154.533 56.4087 154.581 58.3103C154.647 59.2554 154.304 60.1836 153.639 60.8619C152.973 61.5401 152.047 61.9039 151.095 61.8618C149.18 61.862 147.623 60.3285 147.607 58.4263C147.591 56.5241 149.122 54.9647 151.036 54.9329Z" fill="#19191B"/>
<path d="M172.544 61.2207C172.544 64.5693 169.614 65.9957 166.45 65.9957C163.833 66.2312 161.337 64.8585 160.148 62.531L163.957 60.3766C164.274 61.4602 165.311 62.176 166.444 62.0943C167.498 62.0943 168.026 61.7737 168.026 61.1928C168.026 59.5899 160.816 60.4354 160.816 55.3987C160.816 52.2237 163.513 50.6237 166.561 50.6237C168.894 50.5503 171.083 51.7436 172.275 53.7384L168.524 55.7472C168.187 54.9676 167.414 54.4633 166.561 54.4663C165.798 54.4663 165.329 54.7604 165.329 55.281C165.335 56.9413 172.544 55.834 172.544 61.2207Z" fill="#19191B"/>
<path d="M188.603 51.031V65.5898H184.207V64.2207C183.178 65.4462 181.62 66.1069 180.018 65.9972C177.057 65.9972 174.541 63.9016 174.541 59.9678V51.031H178.937V59.3281C178.863 60.0299 179.103 60.7287 179.594 61.2386C180.085 61.7485 180.777 62.0179 181.486 61.9751C183.098 61.9751 184.211 61.0442 184.211 58.9766V51.0354L188.603 51.031Z" fill="#19191B"/>
<path d="M213.812 56.6501V65.5883H209.416V57.0281C209.416 55.5722 208.713 54.6413 207.307 54.6413C205.841 54.6413 205.02 55.6604 205.02 57.3781V65.5883H200.625V57.0281C200.625 55.5722 199.922 54.6413 198.514 54.6413C197.048 54.6413 196.228 55.6604 196.228 57.3781V65.5883H191.832V51.0295H196.228V52.3678C197.154 51.1614 198.633 50.5041 200.155 50.6222C201.686 50.5478 203.143 51.277 203.994 52.5428C204.984 51.2195 206.589 50.4942 208.244 50.6222C211.608 50.6236 213.812 53.0104 213.812 56.6501Z" fill="#19191B"/>
<path d="M217.531 50.9413C219.333 50.9413 220.793 49.4902 220.793 47.7002C220.793 45.9101 219.333 44.459 217.531 44.459C215.729 44.459 214.268 45.9101 214.268 47.7002C214.268 49.4902 215.729 50.9413 217.531 50.9413Z" fill="#19191B"/>
</svg>
